<?xml version="1.0" encoding="utf-8"?>
<!-- Generator: Adobe Illustrator 19.0.0, SVG Export Plug-In . SVG Version: 6.00 Build 0)  -->
<svg version="1.1" id="Capa_1" xmlns="http://www.w3.org/2000/svg" xmlns:xlink="http://www.w3.org/1999/xlink" x="0px" y="0px"
	 viewBox="-251 252.1 96.9 96.9" style="enable-background:new -251 252.1 96.9 96.9;" xml:space="preserve">
<style type="text/css">
	.st0{fill:#808080;}
</style>
<g>
	<path class="st0" d="M-155.8,277.7c-1.2-5.2-5.4-9-10.5-9.5c-12-1.3-24.2-1.3-36.3-1.3c-12.1,0-24.3,0-36.3,1.3
		c-5.1,0.6-9.3,4.4-10.5,9.5c-1.7,7.3-1.7,15.3-1.7,22.9c0,7.6,0,15.6,1.7,22.9c1.2,5.2,5.4,9,10.5,9.5c12,1.3,24.2,1.3,36.3,1.3
		c12.1,0,24.3,0,36.3-1.3c5.1-0.6,9.3-4.4,10.5-9.5c1.7-7.3,1.7-15.3,1.7-22.9C-154.1,293-154.1,285-155.8,277.7z M-215.1,315.6
		c0-10.7,0-21.3,0-32c10.3,5.4,20.5,10.7,30.8,16.1C-194.6,305-204.8,310.3-215.1,315.6z"/>
</g>
</svg>
